#N canvas 1 69 450 300 10;
#X obj 106 27 adc~;
#X obj 106 58 env~;
#X floatatom 106 90 5 0 0 0 - - -;
#X floatatom 86 138 5 0 0 0 - - -;
#X obj 106 110 * 0.01;
#X obj 52 114 line;
#X floatatom 127 175 5 0 0 0 - - -;
#X obj 150 111 line;
#X floatatom 166 138 5 0 0 0 - - -;
#X msg 150 92 \$1 200;
#X obj 127 131 * 2;
#X msg 52 95 \$1 500;
#X obj 129 153 - 0.6;
#X msg 8 40 \; pd dsp \$1;
#X obj 8 15 tgl 15 0 empty empty empty 17 7 0 10 -262144 -1 -1 0 1
;
#X connect 0 0 1 0;
#X connect 1 0 2 0;
#X connect 2 0 4 0;
#X connect 2 0 9 0;
#X connect 4 0 3 0;
#X connect 4 0 11 0;
#X connect 5 0 10 0;
#X connect 7 0 8 0;
#X connect 9 0 7 0;
#X connect 10 0 12 0;
#X connect 11 0 5 0;
#X connect 12 0 6 0;
#X connect 14 0 13 0;
