#N canvas 859 235 697 484 10;
#X obj 381 136 gemwin;
#X msg 392 114 0 \, destroy;
#X obj 549 3 gemkeyboard;
#X obj 550 41 bng 15 250 50 0 empty empty empty 17 7 0 10 -262144 -1
-1;
#X msg 280 58 fullscreen \$1;
#X obj 610 22 key;
#X obj 567 40 select 113;
#X obj 549 22 select 38;
#X obj 25 25 cnv 15 190 140 empty empty Output-window 20 12 0 14 -233017
-66577 0;
#X obj 45 124 tgl 30 0 fullscreenwin empty Fullscreen 35 15 0 15 -262144
-1 -1 0 1;
#X obj 45 48 bng 30 250 50 0 createwin empty Create 35 15 0 15 -262144
-1 -1;
#X obj 45 86 bng 30 250 50 0 destroywin empty Destroy 35 15 0 15 -262144
-1 -1;
#X text 146 92 or press q;
#X obj 381 46 r createwin;
#X obj 280 22 r fullscreenwin;
#X obj 486 128 r destroywin;
#X msg 381 77 dimen 320 240 \, create \, 1;
#X obj 287 217 pix_texture;
#X obj 287 248 rectangle 6 4;
#X obj 287 182 inlet;
#X connect 1 0 0 0;
#X connect 2 0 7 0;
#X connect 3 0 1 0;
#X connect 4 0 0 0;
#X connect 5 0 6 0;
#X connect 6 0 3 0;
#X connect 7 0 3 0;
#X connect 13 0 16 0;
#X connect 14 0 4 0;
#X connect 15 0 1 0;
#X connect 16 0 0 0;
#X connect 17 0 18 0;
#X connect 19 0 17 0;
#X coords 0 -1 1 1 200 150 2 20 20;
