#N canvas 9 241 494 300 10;
#X obj 25 25 cnv 15 190 55 empty empty Source-mixer 20 12 0 14 -233017
-66577 0;
#X obj 303 76 pix_mix;
#X obj 303 34 inlet;
#X obj 349 34 inlet;
#X obj 303 111 outlet;
#X obj 53 52 hsl 128 15 0 1 0 0 \$0-mixer-value empty empty -2 -8 0
10 -262144 -1 -1 6350 1;
#X obj 388 75 r \$0-mixer-value;
#X obj 255 -7 loadbang;
#X msg 255 21 0.5;
#X obj 388 109 outlet;
#X connect 1 0 4 0;
#X connect 2 0 1 0;
#X connect 3 0 1 1;
#X connect 6 0 1 2;
#X connect 6 0 9 0;
#X connect 7 0 8 0;
#X connect 8 0 5 0;
#X coords 0 -1 1 1 200 65 2 20 20;
