#N canvas 205 132 1152 686 10;
#X obj 16 398 block~ 4096;
#X obj 184 371 osc~ 1;
#X obj 184 390 +~ 1;
#X obj 211 292 noise~;
#X obj 211 315 *~ 0;
#X floatatom 184 353 5 0 0 0 - - -;
#X floatatom 687 288 5 0 0 0 - - -;
#X floatatom 686 386 5 0 0 0 - - -;
#X obj 686 362 /;
#X obj 686 409 pack f f;
#X msg 686 433 dimen \$2 \$1;
#X obj 162 497 r dim0;
#X obj 331 289 osc~ 1;
#X obj 331 308 +~ 1;
#X obj 460 292 phasor~ 700;
#X obj 223 114 vsl 15 128 5e-08 0.5 1 0 empty empty noise -6 -9 0 10
-258113 -1 -1 0 1;
#X obj 264 114 vsl 15 128 0 1 0 0 empty empty amp 0 -9 0 10 -258113
-1 -1 0 1;
#X obj 184 115 vsl 15 128 0 1024 0 0 empty empty freq -5 -9 0 10 -258113
-1 -1 0 1;
#X obj 334 115 vsl 15 128 0 1024 0 0 empty empty freq -5 -9 0 10 -4034
-1 -1 0 1;
#X obj 518 114 vsl 15 128 0 127 0 0 empty empty freq1 -4 -9 0 10 -4160
-1 -1 0 1;
#X obj 710 114 vsl 15 128 0 512 0 0 empty empty scale -3 -9 0 10 -228856
-1 -1 0 1;
#X obj 634 114 vsl 15 128 0 1 0 0 empty empty blue_amp -8 -9 0 10 -4160
-1 -1 0 1;
#X obj 408 115 vsl 15 128 0 64 0 0 empty empty lfo 0 -9 0 10 -4034
-1 -1 0 1;
#X obj 459 391 *~ 0.5;
#X obj 686 456 s dim0;
#X obj 687 311 t b f f;
#X obj 477 414 *~;
#X obj 459 435 +~;
#X obj 335 421 *~;
#X obj 184 414 *~ 0.5;
#X obj 389 371 osc~;
#X obj 445 115 vsl 15 128 0 1 0 0 empty empty mod 0 -9 0 10 -4034 -1
-1 0 1;
#X obj 389 393 *~;
#X obj 372 114 vsl 15 128 0 1 0 0 empty empty amp 0 -9 0 10 -4034 -1
-1 0 1;
#X obj 377 344 sig~;
#X obj 558 114 vsl 15 128 0 127 0 0 empty empty freq2 -4 -9 0 10 -4160
-1 -1 0 1;
#X obj 597 114 vsl 15 128 0 1 0 0 empty empty mod 0 -9 0 10 -4160 -1
-1 0 1;
#X obj 537 291 phasor~;
#X obj 459 369 +~;
#X obj 479 346 *~;
#X floatatom 199 255 5 0 0 0 - - -;
#X floatatom 237 255 5 0 0 0 - - -;
#X floatatom 277 255 5 0 0 0 - - -;
#X floatatom 344 256 5 0 0 0 - - -;
#X floatatom 382 256 5 0 0 0 - - -;
#X floatatom 417 256 5 0 0 0 - - -;
#X floatatom 455 256 5 0 0 0 - - -;
#X floatatom 529 254 5 0 0 0 - - -;
#X floatatom 569 255 5 0 0 0 - - -;
#X floatatom 608 255 5 0 0 0 - - -;
#X floatatom 645 255 5 0 0 0 - - -;
#X floatatom 711 257 5 0 0 0 - - -;
#X obj 541 -27 ctlin;
#X floatatom 554 1 5 0 0 0 - - -;
#X obj 184 66 * 8;
#X obj 240 45 / 128;
#X obj 239 73 / 2;
#X obj 296 45 / 128;
#X obj 351 44 * 8;
#X obj 399 45 / 128;
#X obj 449 44 / 2;
#X obj 497 43 / 128;
#X obj 613 72 / 128;
#X obj 663 72 / 128;
#X obj 721 68 * 5;
#X msg 687 339 4096;
#X obj 184 43 inlet;
#X obj 240 23 inlet;
#X obj 296 23 inlet;
#X obj 351 23 inlet;
#X obj 399 23 inlet;
#X obj 449 23 inlet;
#X obj 497 23 inlet;
#X obj 611 41 inlet;
#X obj 659 42 inlet;
#X obj 712 43 inlet;
#X obj 514 71 inlet;
#X obj 561 74 inlet;
#X obj 228 559 outlet;
#X obj 279 492 pix_sig2pix~ 64 64;
#X obj 279 529 pix_resize 320 240;
#X obj 161 469 gemhead 3;
#X connect 1 0 2 0;
#X connect 2 0 29 0;
#X connect 3 0 4 0;
#X connect 4 0 79 0;
#X connect 5 0 1 0;
#X connect 6 0 25 0;
#X connect 7 0 9 0;
#X connect 8 0 7 0;
#X connect 9 0 10 0;
#X connect 10 0 24 0;
#X connect 11 0 79 0;
#X connect 12 0 13 0;
#X connect 13 0 28 0;
#X connect 14 0 38 0;
#X connect 15 0 4 1;
#X connect 15 0 41 0;
#X connect 16 0 29 1;
#X connect 16 0 42 0;
#X connect 17 0 5 0;
#X connect 17 0 40 0;
#X connect 18 0 12 0;
#X connect 18 0 43 0;
#X connect 19 0 14 0;
#X connect 19 0 47 0;
#X connect 20 0 6 0;
#X connect 20 0 51 0;
#X connect 21 0 23 1;
#X connect 21 0 50 0;
#X connect 22 0 30 0;
#X connect 22 0 45 0;
#X connect 23 0 27 0;
#X connect 25 0 65 0;
#X connect 25 1 8 1;
#X connect 25 2 9 1;
#X connect 26 0 27 1;
#X connect 27 0 79 2;
#X connect 28 0 79 1;
#X connect 29 0 79 0;
#X connect 30 0 32 0;
#X connect 31 0 32 1;
#X connect 31 0 46 0;
#X connect 32 0 28 1;
#X connect 33 0 34 0;
#X connect 33 0 44 0;
#X connect 34 0 28 1;
#X connect 35 0 37 0;
#X connect 35 0 48 0;
#X connect 36 0 39 1;
#X connect 36 0 49 0;
#X connect 37 0 39 0;
#X connect 38 0 23 0;
#X connect 39 0 38 1;
#X connect 52 1 53 0;
#X connect 54 0 17 0;
#X connect 55 0 56 0;
#X connect 56 0 15 0;
#X connect 57 0 16 0;
#X connect 58 0 18 0;
#X connect 59 0 33 0;
#X connect 60 0 22 0;
#X connect 61 0 31 0;
#X connect 62 0 36 0;
#X connect 63 0 21 0;
#X connect 64 0 20 0;
#X connect 65 0 8 0;
#X connect 66 0 54 0;
#X connect 67 0 55 0;
#X connect 68 0 57 0;
#X connect 69 0 58 0;
#X connect 70 0 59 0;
#X connect 71 0 60 0;
#X connect 72 0 61 0;
#X connect 73 0 62 0;
#X connect 74 0 63 0;
#X connect 75 0 64 0;
#X connect 76 0 19 0;
#X connect 77 0 35 0;
#X connect 79 0 80 0;
#X connect 80 0 78 0;
#X connect 81 0 79 0;
#X coords 0 -1 1 1 650 150 1 100 100;
