#N canvas 773 338 450 300 10;
#X obj 122 15 adc~;
#X msg 9 93 \; pd dsp \$1;
#X obj 9 67 tgl 15 0 empty empty empty 17 7 0 10 -262144 -1 -1 1 1
;
#X obj 9 17 loadbang;
#X obj 287 44 env~;
#X floatatom 287 76 5 0 0 0 - - -;
#X floatatom 267 124 5 0 0 0 - - -;
#X obj 287 96 * 0.01;
#X obj 233 100 line;
#X floatatom 308 161 5 0 0 0 - - -;
#X obj 331 97 line;
#X floatatom 347 124 5 0 0 0 - - -;
#X msg 331 78 \$1 200;
#X obj 308 117 * 2;
#X msg 233 81 \$1 500;
#X obj 310 139 - 0.6;
#X obj 123 55 outlet~;
#X obj 20 161 gemhead;
#X obj 75 223 pix_sig2pix~ 64 64;
#X obj 173 186 block~ 4096;
#X connect 0 0 16 0;
#X connect 2 0 1 0;
#X connect 3 0 2 0;
#X connect 4 0 5 0;
#X connect 5 0 7 0;
#X connect 5 0 12 0;
#X connect 7 0 6 0;
#X connect 7 0 14 0;
#X connect 8 0 13 0;
#X connect 10 0 11 0;
#X connect 12 0 10 0;
#X connect 13 0 15 0;
#X connect 14 0 8 0;
#X connect 15 0 9 0;
#X connect 17 0 18 0;
