#N canvas 13 107 871 498 10;
#X obj 523 109 gemwin;
#X msg 534 87 0 \, destroy;
#X obj 24 43 gemhead;
#X obj 24 17 tgl 15 0 empty empty empty 17 7 0 10 -262144 -1 -1 1 1
;
#X obj 24 129 pix_film;
#X msg 73 67 open \$1;
#X obj 73 43 openpanel;
#X obj 73 15 bng 15 250 50 0 empty empty empty 17 7 0 10 -262144 -1
-1;
#X obj 46 151 unpack f f f;
#X floatatom 46 175 5 0 0 0 - - -;
#X floatatom 88 175 5 0 0 0 - - -;
#X floatatom 130 176 5 0 0 0 - - -;
#X msg 135 43 auto \$1;
#X obj 135 18 tgl 15 0 empty empty empty 17 7 0 10 -262144 -1 -1 1
1;
#X obj 25 405 pix_texture;
#X obj 25 469 rectangle 6 4;
#X obj 136 88 metro 100;
#X obj 136 108 random 30675;
#X obj 139 65 tgl 15 0 empty empty empty 17 7 0 10 -262144 -1 -1 0
1;
#X obj 214 45 gemhead;
#X obj 214 19 tgl 15 0 empty empty empty 17 7 0 10 -262144 -1 -1 0
1;
#X obj 214 131 pix_film;
#X msg 263 69 open \$1;
#X obj 263 45 openpanel;
#X obj 263 17 bng 15 250 50 0 empty empty empty 17 7 0 10 -262144 -1
-1;
#X obj 236 154 unpack f f f;
#X floatatom 236 176 5 0 0 0 - - -;
#X floatatom 278 176 5 0 0 0 - - -;
#X floatatom 320 177 5 0 0 0 - - -;
#X msg 325 45 auto \$1;
#X obj 325 20 tgl 15 0 empty empty empty 17 7 0 10 -262144 -1 -1 0
1;
#X obj 326 90 metro 100;
#X obj 326 110 random 30675;
#X obj 329 68 tgl 15 0 empty empty empty 17 7 0 10 -262144 -1 -1 0
1;
#X obj 25 343 pix_mix 0;
#X msg 523 49 dimen 320 240 \, create \, 1;
#X obj 201 260 knob 32 32 0 1 0 0 empty empty Mix 0 -8 0 8 -262144
-1 -1 0 1;
#X msg 525 159 \; pd dsp \$1;
#X obj 525 134 tgl 15 0 empty empty empty 17 7 0 10 -262144 -1 -1 1
1;
#X obj 410 63 adc~;
#X obj 410 94 env~;
#X floatatom 410 126 5 0 0 0 - - -;
#X obj 117 469 circle 4;
#X obj 25 426 translateXYZ;
#X obj 25 447 rotateXYZ;
#X msg 112 436 0;
#X floatatom 390 174 5 0 0 0 - - -;
#X obj 410 146 * 0.01;
#X obj 25 363 pix_gain;
#X obj 25 384 pix_threshold;
#X obj 247 261 knob 32 32 0 1 0 0 empty empty Gain 0 -8 0 8 -262144
-1 -1 953 1;
#X obj 290 261 knob 32 32 0 1 0 0 empty empty Threshold 0 -8 0 8 -262144
-1 -1 0 1;
#X msg 138 128 0;
#X text 46 -3 Open video 1;
#X text 238 -2 Open video 1;
#X obj 112 345 bondo 3;
#X obj 112 366 pack f f f;
#X obj 112 389 bondo 3;
#X obj 112 413 pack f f f;
#X obj 371 264 knob 32 32 0 2 0 0 empty empty R 0 -8 0 8 -262144 -1
-1 0 1;
#X obj 411 264 knob 32 32 0 2 0 0 empty empty G 0 -8 0 8 -262144 -1
-1 0 1;
#X obj 450 264 knob 32 32 0 2 0 0 empty empty B 0 -8 0 8 -262144 -1
-1 0 1;
#X obj 511 264 knob 32 32 0 1 0 0 empty empty R 0 -8 0 8 -262144 -1
-1 0 1;
#X obj 552 264 knob 32 32 0 1 0 0 empty empty G 0 -8 0 8 -262144 -1
-1 0 1;
#X obj 591 264 knob 32 32 0 1 0 0 empty empty B 0 -8 0 8 -262144 -1
-1 0 1;
#X text 402 226 Gain;
#X text 530 231 Treshhold;
#X obj 356 150 line;
#X floatatom 431 211 5 0 0 0 - - -;
#X obj 454 147 line;
#X floatatom 470 174 5 0 0 0 - - -;
#X msg 454 128 \$1 200;
#X obj 431 167 * 2;
#X msg 356 131 \$1 500;
#X obj 433 189 - 0.6;
#X obj 691 34 gemkeyboard;
#X obj 692 72 bng 15 250 50 0 empty empty empty 17 7 0 10 -262144 -1
-1;
#X msg 422 31 fullscreen \$1;
#X obj 422 11 tgl 15 0 empty empty empty 17 7 0 10 -262144 -1 -1 0
1;
#X obj 752 53 key;
#X obj 709 71 select 113;
#X obj 691 53 select 38;
#X text 441 9 Press q to quit fullscreen;
#X connect 1 0 0 0;
#X connect 2 0 4 0;
#X connect 3 0 2 0;
#X connect 4 0 34 0;
#X connect 4 1 8 0;
#X connect 5 0 4 0;
#X connect 6 0 5 0;
#X connect 7 0 6 0;
#X connect 8 0 9 0;
#X connect 8 1 10 0;
#X connect 8 2 11 0;
#X connect 12 0 4 0;
#X connect 13 0 12 0;
#X connect 14 0 43 0;
#X connect 16 0 17 0;
#X connect 17 0 4 1;
#X connect 18 0 16 0;
#X connect 19 0 21 0;
#X connect 20 0 19 0;
#X connect 21 0 34 1;
#X connect 21 1 25 0;
#X connect 22 0 21 0;
#X connect 23 0 22 0;
#X connect 24 0 23 0;
#X connect 25 0 26 0;
#X connect 25 1 27 0;
#X connect 25 2 28 0;
#X connect 29 0 21 0;
#X connect 30 0 29 0;
#X connect 31 0 32 0;
#X connect 32 0 21 1;
#X connect 33 0 31 0;
#X connect 34 0 48 0;
#X connect 35 0 0 0;
#X connect 36 0 34 2;
#X connect 38 0 37 0;
#X connect 39 0 40 0;
#X connect 40 0 41 0;
#X connect 41 0 47 0;
#X connect 41 0 71 0;
#X connect 43 0 44 0;
#X connect 44 0 15 0;
#X connect 45 0 44 1;
#X connect 45 0 44 2;
#X connect 45 0 44 3;
#X connect 45 0 43 1;
#X connect 45 0 43 2;
#X connect 45 0 43 3;
#X connect 47 0 46 0;
#X connect 47 0 73 0;
#X connect 48 0 49 0;
#X connect 49 0 14 0;
#X connect 50 0 48 1;
#X connect 51 0 49 1;
#X connect 52 0 4 1;
#X connect 52 0 21 1;
#X connect 55 0 56 0;
#X connect 55 1 56 1;
#X connect 55 2 56 2;
#X connect 56 0 48 2;
#X connect 57 0 58 0;
#X connect 57 1 58 1;
#X connect 57 2 58 2;
#X connect 58 0 49 2;
#X connect 59 0 55 0;
#X connect 60 0 55 1;
#X connect 61 0 55 2;
#X connect 62 0 57 0;
#X connect 63 0 57 1;
#X connect 64 0 57 2;
#X connect 67 0 72 0;
#X connect 68 0 43 3;
#X connect 68 0 50 0;
#X connect 69 0 70 0;
#X connect 71 0 69 0;
#X connect 72 0 74 0;
#X connect 73 0 67 0;
#X connect 74 0 68 0;
#X connect 75 0 81 0;
#X connect 76 0 1 0;
#X connect 77 0 0 0;
#X connect 78 0 77 0;
#X connect 79 0 80 0;
#X connect 80 0 76 0;
#X connect 81 0 76 0;
