#N canvas 532 130 1318 869 10;
#X obj 854 849 translateXYZ;
#X obj 854 870 rotateXYZ;
#X msg 941 859 0;
#X obj 600 25 output-window;
#X obj 881 759 knob 32 32 0 30 0 0 empty empty empty 0 -8 0 8 -262144
-1 -1 0 1;
#X obj 25 193 source-mixer;
#X obj 25 27 source-videofile;
#X obj 292 27 source-videofile;
#X obj 25 435 fx-delayrgb;
#X obj 201 865 pix_texture;
#X obj 214 896 rectangle 6 4;
#X obj 25 277 fx-gain-threshold;
#X obj 368 472 source-video-synth;
#X connect 0 0 1 0;
#X connect 2 0 1 1;
#X connect 2 0 1 2;
#X connect 2 0 1 3;
#X connect 2 0 0 1;
#X connect 2 0 0 2;
#X connect 2 0 0 3;
#X connect 4 0 0 1;
#X connect 4 0 0 2;
#X connect 5 0 11 0;
#X connect 6 0 5 0;
#X connect 7 0 5 1;
#X connect 8 0 9 0;
#X connect 8 1 9 0;
#X connect 8 2 9 0;
#X connect 8 3 9 0;
#X connect 9 0 10 0;
#X connect 11 0 8 0;
