#N canvas 404 104 871 498 10;
#X obj 25 405 pix_texture;
#X obj 25 469 rectangle 6 4;
#X obj 25 343 pix_mix 0;
#X obj 307 303 knob 32 32 0 1 0 0 empty empty Mix 0 -8 0 8 -262144
-1 -1 1700 1;
#X obj 117 469 circle 4;
#X obj 25 426 translateXYZ;
#X obj 25 447 rotateXYZ;
#X msg 112 436 0;
#X obj 25 363 pix_gain;
#X obj 25 384 pix_threshold;
#X obj 353 304 knob 32 32 0 1 0 0 empty empty Gain 0 -8 0 8 -262144
-1 -1 0 1;
#X obj 396 304 knob 32 32 0 1 0 0 empty empty Threshold 0 -8 0 8 -262144
-1 -1 0 1;
#X obj 112 345 bondo 3;
#X obj 112 366 pack f f f;
#X obj 112 389 bondo 3;
#X obj 112 413 pack f f f;
#X obj 477 307 knob 32 32 0 2 0 0 empty empty R 0 -8 0 8 -262144 -1
-1 0 1;
#X obj 517 307 knob 32 32 0 2 0 0 empty empty G 0 -8 0 8 -262144 -1
-1 0 1;
#X obj 556 307 knob 32 32 0 2 0 0 empty empty B 0 -8 0 8 -262144 -1
-1 0 1;
#X obj 617 307 knob 32 32 0 1 0 0 empty empty R 0 -8 0 8 -262144 -1
-1 0 1;
#X obj 658 307 knob 32 32 0 1 0 0 empty empty G 0 -8 0 8 -262144 -1
-1 0 1;
#X obj 697 307 knob 32 32 0 1 0 0 empty empty B 0 -8 0 8 -262144 -1
-1 0 1;
#X text 508 269 Gain;
#X text 636 274 Treshhold;
#X obj 25 27 source-videofile;
#X obj 622 26 output-window;
#X obj 292 27 source-videofile;
#X connect 0 0 5 0;
#X connect 2 0 8 0;
#X connect 3 0 2 2;
#X connect 5 0 6 0;
#X connect 6 0 1 0;
#X connect 7 0 6 1;
#X connect 7 0 6 2;
#X connect 7 0 6 3;
#X connect 7 0 5 1;
#X connect 7 0 5 2;
#X connect 7 0 5 3;
#X connect 8 0 9 0;
#X connect 9 0 0 0;
#X connect 10 0 8 1;
#X connect 11 0 9 1;
#X connect 12 0 13 0;
#X connect 12 1 13 1;
#X connect 12 2 13 2;
#X connect 13 0 8 2;
#X connect 14 0 15 0;
#X connect 14 1 15 1;
#X connect 14 2 15 2;
#X connect 15 0 9 2;
#X connect 16 0 12 0;
#X connect 17 0 12 1;
#X connect 18 0 12 2;
#X connect 19 0 14 0;
#X connect 20 0 14 1;
#X connect 21 0 14 2;
#X connect 24 0 2 0;
#X connect 26 0 2 1;
