#N canvas 290 79 700 648 10;
#X obj 449 57 cnv 15 250 350 empty empty empty 20 12 0 14 -228992 -66577
0;
#X obj 594 340 cnv 15 100 60 empty empty empty 20 12 0 14 -195568 -66577
0;
#N canvas 0 0 450 300 gemwin 0;
#X obj 132 136 gemwin;
#X obj 67 89 outlet;
#X obj 67 10 inlet;
#X msg 67 70 set destroy;
#X msg 132 112 create \, 1;
#X msg 198 112 destroy;
#X msg 156 71 set create;
#X obj 67 41 route create;
#X connect 2 0 7 0;
#X connect 3 0 1 0;
#X connect 4 0 0 0;
#X connect 5 0 0 0;
#X connect 6 0 1 0;
#X connect 7 0 3 0;
#X connect 7 0 4 0;
#X connect 7 1 6 0;
#X connect 7 1 5 0;
#X restore 599 379 pd gemwin;
#X msg 599 360 create;
#X text 595 339 Create window:;
#X obj 451 88 cnv 15 155 250 empty empty empty 20 12 0 14 -24198 -66577
0;
#X obj 451 63 gemhead;
#X obj 194 544 pix_texture;
#X obj 463 93 bng 25 250 50 0 empty empty empty 0 -6 0 8 -262144 -1
-1;
#X text 505 57 open a supported;
#X text 506 68 movie-clip;
#X obj 476 287 unpack 0 0 0;
#X floatatom 466 310 5 0 0 3 length - -;
#X floatatom 515 310 5 0 0 3 width - -;
#X floatatom 565 310 5 0 0 3 height - -;
#X obj 520 268 bng 15 250 50 0 empty empty end_reached 20 7 0 10 -262144
-1 -1;
#X floatatom 502 233 5 0 10000 1 frame# - -;
#X obj 463 122 openpanel;
#X msg 463 142 open \$1;
#X obj 194 566 rectangle 4 3;
#X obj 446 245 pix_film;
#X msg 469 185 auto \$1;
#X obj 469 167 tgl 15 0 empty empty empty 0 -6 0 8 -262144 -1 -1 0
1;
#X msg 480 209 colorspace Grey;
#N canvas 66 228 450 432 :: 0;
#X text 24 16 the format [pix_film] is able to decode depends on the
system you are running Gem.;
#X text 30 101 Win32: [pix_film] should be able to decode AVIs (all
installed codecs). If you are lucky and your version of Gem is compiled
with quicktime-support and you have quicktime installed on your machine
\, you might be able to play back quicktime MOVs.;
#X text 31 63 macOS-X: [pix_film] should be ablte to decode quicktime
MOVs.;
#X text 32 175 linux: that's a bit tricky. Since there is no "native"
video-format for linux it heavily depends on what you have installed
on your machine and how Gem has been compiled. If your system supports
it \, [pix_film] is able to use quicktime4linux/libquicktime to decode
quicktime-MOVs \, libmpeg1/libmpeg3 to decode MPEG2-videos and libaviplay
which opens a wide range of supported formats (with the possibility
to install additional codec-plugins) \, from AVI via MPEG2 to DivX
\, although i have found MPEG support rather unstable. libaviplay does
not support quicktime decoding. There is also some ruddy ffmpeg support
(apart from the one supplied by libaviplay).;
#X text 36 351 although one wouldn't believe it \, but i have found
that under linux i could play most formats...;
#X restore 611 99 pd :: FORMATS;
#X text 495 96 1);
#X text 486 164 2);
#X text 581 207 3);
#X text 650 358 4);
#X obj 77 315 delayrgb;
#X text 58 79 Instructions: 1) Click the big bang to open a movie file
2) Click on the toggle over [auto \$1( to enable loop 3) Click on [Create(
4)For better results click on [colorspace Grey(;
#X connect 2 0 3 0;
#X connect 3 0 2 0;
#X connect 6 0 20 0;
#X connect 7 0 19 0;
#X connect 8 0 17 0;
#X connect 11 0 12 0;
#X connect 11 1 13 0;
#X connect 11 2 14 0;
#X connect 15 0 16 0;
#X connect 16 0 20 1;
#X connect 17 0 18 0;
#X connect 18 0 20 0;
#X connect 20 0 29 0;
#X connect 20 0 29 1;
#X connect 20 1 11 0;
#X connect 20 2 15 0;
#X connect 21 0 20 0;
#X connect 22 0 21 0;
#X connect 23 0 20 0;
#X connect 29 0 7 0;
#X connect 29 1 7 0;
#X connect 29 2 7 0;
#X connect 29 3 7 0;
